<mxfile host="app.diagrams.net" agent="Mozilla/5.0 (Macintosh; Intel Mac OS X 10.15; rv:139.0) Gecko/20100101 Firefox/139.0" version="27.1.4">
  <diagram name="Strona-1" id="qYq6OFuZ9AcvVsh4jo1y">
    <mxGraphModel grid="1" page="1" gridSize="10" guides="1" tooltips="1" connect="1" arrows="1" fold="1" pageScale="1" pageWidth="900" pageHeight="1600" math="0" shadow="0">
      <root>
        <mxCell id="0" />
        <mxCell id="1" parent="0" />
        <mxCell id="NYaNzhN2HTJbnaGsdy4C-27" value="" style="rounded=0;whiteSpace=wrap;html=1;strokeColor=none;fillColor=#F9F9F9;" vertex="1" parent="1">
          <mxGeometry x="-20" y="-110" width="790" height="620" as="geometry" />
        </mxCell>
        <mxCell id="NYaNzhN2HTJbnaGsdy4C-24" value="" style="whiteSpace=wrap;html=1;fillColor=light-dark(#f1e5f9, #ededed);strokeColor=light-dark(#A78DB7,#EDEDED);" vertex="1" parent="1">
          <mxGeometry x="240" y="50" width="510" height="440" as="geometry" />
        </mxCell>
        <mxCell id="iMfNDz88TzAXqPefZH_L-1" style="edgeStyle=orthogonalEdgeStyle;rounded=0;orthogonalLoop=1;jettySize=auto;html=1;endArrow=none;startFill=0;" edge="1" parent="1" source="PnFw1EJxxLD10fFxVw26-2">
          <mxGeometry relative="1" as="geometry">
            <mxPoint x="420" y="-50" as="targetPoint" />
            <Array as="points">
              <mxPoint x="420" y="-10" />
            </Array>
          </mxGeometry>
        </mxCell>
        <mxCell id="PnFw1EJxxLD10fFxVw26-2" value="Git repository" style="rounded=0;whiteSpace=wrap;html=1;fillColor=#d80073;strokeColor=#A50040;fontColor=#ffffff;" vertex="1" parent="1">
          <mxGeometry x="450" y="-25" width="120" height="60" as="geometry" />
        </mxCell>
        <mxCell id="NYaNzhN2HTJbnaGsdy4C-7" style="edgeStyle=orthogonalEdgeStyle;rounded=0;orthogonalLoop=1;jettySize=auto;html=1;endArrow=blockThin;endFill=1;jumpStyle=arc;" edge="1" parent="1" source="PnFw1EJxxLD10fFxVw26-4" target="PnFw1EJxxLD10fFxVw26-18">
          <mxGeometry relative="1" as="geometry">
            <Array as="points">
              <mxPoint x="430" y="220" />
              <mxPoint x="700" y="220" />
            </Array>
          </mxGeometry>
        </mxCell>
        <mxCell id="NYaNzhN2HTJbnaGsdy4C-22" value="&lt;div&gt;Monitors endpoint&lt;/div&gt;&lt;div&gt;&lt;font face=&quot;Courier New&quot;&gt;/metrics&lt;/font&gt;&lt;/div&gt;" style="edgeLabel;html=1;align=center;verticalAlign=middle;resizable=0;points=[];labelBackgroundColor=light-dark(#f1e4f8, #ededed);" connectable="0" vertex="1" parent="NYaNzhN2HTJbnaGsdy4C-7">
          <mxGeometry x="0.2746" y="-1" relative="1" as="geometry">
            <mxPoint x="-221" y="10" as="offset" />
          </mxGeometry>
        </mxCell>
        <mxCell id="NYaNzhN2HTJbnaGsdy4C-8" style="edgeStyle=orthogonalEdgeStyle;rounded=0;orthogonalLoop=1;jettySize=auto;html=1;endArrow=blockThin;endFill=1;" edge="1" parent="1" source="PnFw1EJxxLD10fFxVw26-4" target="PnFw1EJxxLD10fFxVw26-38">
          <mxGeometry relative="1" as="geometry">
            <Array as="points">
              <mxPoint x="310" y="340" />
              <mxPoint x="310" y="340" />
            </Array>
          </mxGeometry>
        </mxCell>
        <mxCell id="NYaNzhN2HTJbnaGsdy4C-23" value="&lt;div&gt;Monitors endpoint&lt;/div&gt;&lt;div&gt;&lt;font face=&quot;Courier New&quot;&gt;/metrics&lt;/font&gt;&lt;/div&gt;" style="edgeLabel;html=1;align=center;verticalAlign=middle;resizable=0;points=[];labelBackgroundColor=light-dark(#f1e4f8, #ededed);" connectable="0" vertex="1" parent="NYaNzhN2HTJbnaGsdy4C-8">
          <mxGeometry x="-0.0564" y="2" relative="1" as="geometry">
            <mxPoint as="offset" />
          </mxGeometry>
        </mxCell>
        <mxCell id="PnFw1EJxxLD10fFxVw26-4" value="Prometheus" style="rounded=0;whiteSpace=wrap;html=1;fillColor=#e1d5e7;strokeColor=#9673a6;" vertex="1" parent="1">
          <mxGeometry x="370" y="310" width="120" height="60" as="geometry" />
        </mxCell>
        <mxCell id="NYaNzhN2HTJbnaGsdy4C-6" style="edgeStyle=orthogonalEdgeStyle;rounded=0;orthogonalLoop=1;jettySize=auto;html=1;endArrow=blockThin;endFill=1;" edge="1" parent="1" source="PnFw1EJxxLD10fFxVw26-8" target="NYaNzhN2HTJbnaGsdy4C-3">
          <mxGeometry relative="1" as="geometry">
            <Array as="points">
              <mxPoint x="540" y="400" />
              <mxPoint x="670" y="400" />
            </Array>
          </mxGeometry>
        </mxCell>
        <mxCell id="NYaNzhN2HTJbnaGsdy4C-9" style="edgeStyle=orthogonalEdgeStyle;rounded=0;orthogonalLoop=1;jettySize=auto;html=1;endArrow=blockThin;endFill=1;" edge="1" parent="1" source="PnFw1EJxxLD10fFxVw26-8" target="PnFw1EJxxLD10fFxVw26-4">
          <mxGeometry relative="1" as="geometry">
            <Array as="points">
              <mxPoint x="540" y="400" />
              <mxPoint x="430" y="400" />
            </Array>
          </mxGeometry>
        </mxCell>
        <mxCell id="PnFw1EJxxLD10fFxVw26-8" value="Grafana" style="rounded=0;whiteSpace=wrap;html=1;fillColor=#e1d5e7;strokeColor=#9673a6;" vertex="1" parent="1">
          <mxGeometry x="480" y="420" width="120" height="60" as="geometry" />
        </mxCell>
        <mxCell id="PnFw1EJxxLD10fFxVw26-11" value="Applies changes" style="edgeStyle=orthogonalEdgeStyle;rounded=0;orthogonalLoop=1;jettySize=auto;html=1;endArrow=blockThin;endFill=1;labelBackgroundColor=light-dark(#f8f8f8, #ededed);" edge="1" parent="1" source="PnFw1EJxxLD10fFxVw26-10" target="PnFw1EJxxLD10fFxVw26-2">
          <mxGeometry x="-0.4921" relative="1" as="geometry">
            <Array as="points">
              <mxPoint x="305" y="-20" />
              <mxPoint x="305" y="5" />
            </Array>
            <mxPoint as="offset" />
          </mxGeometry>
        </mxCell>
        <mxCell id="NYaNzhN2HTJbnaGsdy4C-11" style="edgeStyle=orthogonalEdgeStyle;rounded=0;orthogonalLoop=1;jettySize=auto;html=1;labelBackgroundColor=default;endArrow=blockThin;endFill=1;" edge="1" parent="1" source="PnFw1EJxxLD10fFxVw26-10" target="PnFw1EJxxLD10fFxVw26-16">
          <mxGeometry relative="1" as="geometry">
            <Array as="points">
              <mxPoint x="310" y="-50" />
              <mxPoint x="310" y="-50" />
            </Array>
          </mxGeometry>
        </mxCell>
        <mxCell id="NYaNzhN2HTJbnaGsdy4C-12" value="Builds application images (manually)" style="edgeLabel;html=1;align=center;verticalAlign=middle;resizable=0;points=[];labelBackgroundColor=light-dark(#f8f8f8, #ededed);" connectable="0" vertex="1" parent="NYaNzhN2HTJbnaGsdy4C-11">
          <mxGeometry x="0.2345" y="-1" relative="1" as="geometry">
            <mxPoint x="-49" y="-1" as="offset" />
          </mxGeometry>
        </mxCell>
        <mxCell id="PnFw1EJxxLD10fFxVw26-10" value="Developer" style="shape=umlActor;verticalLabelPosition=bottom;verticalAlign=top;html=1;outlineConnect=0;" vertex="1" parent="1">
          <mxGeometry x="130" y="-60" width="30" height="60" as="geometry" />
        </mxCell>
        <mxCell id="PnFw1EJxxLD10fFxVw26-16" value="Image repository" style="rounded=0;whiteSpace=wrap;html=1;fillColor=#60a917;strokeColor=#2D7600;fontColor=#ffffff;" vertex="1" parent="1">
          <mxGeometry x="450" y="-95" width="120" height="60" as="geometry" />
        </mxCell>
        <mxCell id="NYaNzhN2HTJbnaGsdy4C-28" style="edgeStyle=orthogonalEdgeStyle;rounded=0;orthogonalLoop=1;jettySize=auto;html=1;jumpStyle=arc;endArrow=blockThin;endFill=1;dashed=1;" edge="1" parent="1" source="PnFw1EJxxLD10fFxVw26-18" target="PnFw1EJxxLD10fFxVw26-4">
          <mxGeometry relative="1" as="geometry">
            <Array as="points">
              <mxPoint x="680" y="120" />
              <mxPoint x="400" y="120" />
            </Array>
          </mxGeometry>
        </mxCell>
        <mxCell id="NYaNzhN2HTJbnaGsdy4C-29" style="edgeStyle=orthogonalEdgeStyle;rounded=0;orthogonalLoop=1;jettySize=auto;html=1;jumpStyle=arc;endArrow=blockThin;endFill=1;dashed=1;" edge="1" parent="1" source="PnFw1EJxxLD10fFxVw26-18" target="NYaNzhN2HTJbnaGsdy4C-3">
          <mxGeometry relative="1" as="geometry">
            <Array as="points">
              <mxPoint x="680" y="240" />
              <mxPoint x="680" y="240" />
            </Array>
          </mxGeometry>
        </mxCell>
        <mxCell id="NYaNzhN2HTJbnaGsdy4C-30" style="edgeStyle=orthogonalEdgeStyle;rounded=0;orthogonalLoop=1;jettySize=auto;html=1;jumpStyle=arc;endArrow=blockThin;endFill=1;dashed=1;" edge="1" parent="1" source="PnFw1EJxxLD10fFxVw26-18" target="PnFw1EJxxLD10fFxVw26-8">
          <mxGeometry relative="1" as="geometry">
            <mxPoint x="590" y="450" as="targetPoint" />
            <Array as="points">
              <mxPoint x="680" y="250" />
              <mxPoint x="740" y="250" />
              <mxPoint x="740" y="450" />
            </Array>
          </mxGeometry>
        </mxCell>
        <mxCell id="NYaNzhN2HTJbnaGsdy4C-34" style="edgeStyle=orthogonalEdgeStyle;rounded=0;orthogonalLoop=1;jettySize=auto;html=1;entryX=1;entryY=0.5;entryDx=0;entryDy=0;dashed=1;jumpStyle=arc;endArrow=blockThin;endFill=1;" edge="1" parent="1" source="PnFw1EJxxLD10fFxVw26-18" target="PnFw1EJxxLD10fFxVw26-16">
          <mxGeometry relative="1" as="geometry">
            <Array as="points">
              <mxPoint x="680" y="10" />
              <mxPoint x="595" y="10" />
              <mxPoint x="595" y="-65" />
            </Array>
          </mxGeometry>
        </mxCell>
        <mxCell id="PnFw1EJxxLD10fFxVw26-18" value="Argo CD" style="rounded=0;whiteSpace=wrap;html=1;fillColor=#6a00ff;strokeColor=#3700CC;fontColor=#ffffff;" vertex="1" parent="1">
          <mxGeometry x="620" y="-60" width="120" height="60" as="geometry" />
        </mxCell>
        <mxCell id="PnFw1EJxxLD10fFxVw26-38" value="Application" style="rounded=0;whiteSpace=wrap;html=1;fillColor=#1ba1e2;strokeColor=#006EAF;fontColor=#ffffff;fillStyle=auto;" vertex="1" parent="1">
          <mxGeometry y="50" width="240" height="440" as="geometry" />
        </mxCell>
        <mxCell id="NYaNzhN2HTJbnaGsdy4C-4" style="edgeStyle=orthogonalEdgeStyle;rounded=0;orthogonalLoop=1;jettySize=auto;html=1;jumpStyle=arc;endArrow=blockThin;endFill=1;" edge="1" parent="1" source="NYaNzhN2HTJbnaGsdy4C-1" target="NYaNzhN2HTJbnaGsdy4C-3">
          <mxGeometry relative="1" as="geometry" />
        </mxCell>
        <mxCell id="NYaNzhN2HTJbnaGsdy4C-5" value="Exports traces (OLTP)" style="edgeLabel;html=1;align=center;verticalAlign=middle;resizable=0;points=[];labelBackgroundColor=light-dark(#f1e4f8, #ededed);" connectable="0" vertex="1" parent="NYaNzhN2HTJbnaGsdy4C-4">
          <mxGeometry x="-0.325" relative="1" as="geometry">
            <mxPoint x="-82" as="offset" />
          </mxGeometry>
        </mxCell>
        <mxCell id="NYaNzhN2HTJbnaGsdy4C-1" value="&lt;div&gt;OTel Collector&lt;/div&gt;" style="rounded=0;whiteSpace=wrap;html=1;fillColor=#e1d5e7;strokeColor=#9673a6;" vertex="1" parent="1">
          <mxGeometry x="180" y="225" width="120" height="90" as="geometry" />
        </mxCell>
        <mxCell id="NYaNzhN2HTJbnaGsdy4C-3" value="&lt;div&gt;Grafana Tempo&lt;/div&gt;" style="rounded=0;whiteSpace=wrap;html=1;fillColor=#e1d5e7;strokeColor=#9673a6;" vertex="1" parent="1">
          <mxGeometry x="610" y="320" width="120" height="60" as="geometry" />
        </mxCell>
        <mxCell id="NYaNzhN2HTJbnaGsdy4C-20" style="edgeStyle=orthogonalEdgeStyle;rounded=0;orthogonalLoop=1;jettySize=auto;html=1;endArrow=blockThin;endFill=1;jumpStyle=arc;dashed=1;" edge="1" parent="1" source="PnFw1EJxxLD10fFxVw26-18" target="PnFw1EJxxLD10fFxVw26-38">
          <mxGeometry relative="1" as="geometry">
            <Array as="points">
              <mxPoint x="680" y="120" />
            </Array>
          </mxGeometry>
        </mxCell>
        <mxCell id="NYaNzhN2HTJbnaGsdy4C-21" value="&lt;div&gt;Deploys&lt;/div&gt;&lt;div&gt;application images&lt;/div&gt;" style="edgeLabel;html=1;align=center;verticalAlign=middle;resizable=0;points=[];labelBackgroundColor=light-dark(#f1e4f8, #ededed);" connectable="0" vertex="1" parent="NYaNzhN2HTJbnaGsdy4C-20">
          <mxGeometry x="-0.021" y="-2" relative="1" as="geometry">
            <mxPoint x="114" y="-38" as="offset" />
          </mxGeometry>
        </mxCell>
        <mxCell id="PnFw1EJxxLD10fFxVw26-57" value="Pools&lt;div&gt;manifest files&lt;/div&gt;" style="edgeStyle=orthogonalEdgeStyle;rounded=0;orthogonalLoop=1;jettySize=auto;html=1;jumpStyle=arc;endArrow=blockThin;endFill=1;labelBackgroundColor=light-dark(#f8f8f8, #ededed);" edge="1" parent="1" source="PnFw1EJxxLD10fFxVw26-18" target="PnFw1EJxxLD10fFxVw26-2">
          <mxGeometry x="0.1667" relative="1" as="geometry">
            <Array as="points">
              <mxPoint x="660" y="30" />
            </Array>
            <mxPoint as="offset" />
          </mxGeometry>
        </mxCell>
      </root>
    </mxGraphModel>
  </diagram>
</mxfile>
